<svg width="18" height="16" viewBox="0 0 18 15.82" xmlns="http://www.w3.org/2000/svg">
  <path d="M12.975 0C11.2875 0 10.0125 0.675 9 2.1C7.9875 0.7125 6.7125 0.0375 5.025 0C2.25 0 0 2.4375 0 5.4375C0 8.175 2.025 9.9375 3.975 11.625C4.2 11.8125 4.4625 12.0375 4.6875 12.2625L5.55 13.0125C7.2 14.475 8.025 15.225 8.4 15.45C8.5875 15.5625 8.8125 15.6375 9 15.6375C9.1875 15.6375 9.4125 15.5625 9.6 15.45C9.975 15.225 10.65 14.625 12.525 12.9L13.275 12.225C13.5375 12 13.7625 11.775 14.025 11.5875C16.0125 9.9375 18 8.2125 18 5.4375C18 2.4375 15.75 0 12.975 0Z" fill="black"/>
</svg>
